#N canvas 0 22 378 445 10;
#X declare -lib mrpeach;
#X obj 16 27 import mrpeach;
#X obj 16 70 udpreceive 9001;
#X obj 16 111 unpackOSC;
#X obj 16 152 print;
#X obj 74 153 routeOSC /test;
#X obj 74 183 routeOSC /voice /mute;
#X obj 74 214 t f b;
#X obj 74 241 mtof;
#X obj 74 271 osc~;
#X obj 119 322 *~ 0.5;
#X obj 111 362 dac~;
#X floatatom 160 255 5 0 0 0 - - -;
#X obj 160 283 dbtorms;
#X msg 135 217 0;
#X connect 1 0 2 0;
#X connect 2 0 3 0;
#X connect 2 0 4 0;
#X connect 4 0 5 0;
#X connect 5 0 6 0;
#X connect 5 1 13 0;
#X connect 6 0 7 0;
#X connect 7 0 8 0;
#X connect 8 0 9 0;
#X connect 9 0 10 0;
#X connect 9 0 10 1;
#X connect 11 0 12 0;
#X connect 12 0 9 1;
#X connect 13 0 9 1;
